<svg width="101" height="101" viewBox="0 0 101 101" fill="none" xmlns="http://www.w3.org/2000/svg">
<g filter="url(#filter0_d_2123_43)">
<rect x="8" y="45.6953" width="60" height="60" transform="rotate(-44.021 8 45.6953)" fill="#FEF3C6"/>
<rect x="8.707" y="45.7074" width="59" height="59" transform="rotate(-44.021 8.707 45.7074)" stroke="black"/>
</g>
<circle cx="50" cy="46" r="19" fill="#1E2939" stroke="black" stroke-width="2"/>
<path d="M41.3166 42.2727H42.5779L45.5439 49.517H45.6461L48.612 42.2727H49.8734V51H48.8848V44.3693H48.7995L46.0723 51H45.1177L42.3904 44.3693H42.3052V51H41.3166V42.2727ZM51.9924 51V42.2727H55.0435C55.6515 42.2727 56.1529 42.3778 56.5478 42.5881C56.9426 42.7955 57.2367 43.0753 57.4299 43.4276C57.623 43.777 57.7196 44.1648 57.7196 44.5909C57.7196 44.9659 57.6529 45.2756 57.5194 45.5199C57.3887 45.7642 57.2154 45.9574 56.9995 46.0994C56.7864 46.2415 56.5549 46.3466 56.3049 46.4148V46.5C56.5719 46.517 56.8404 46.6108 57.1103 46.7812C57.3801 46.9517 57.606 47.196 57.7878 47.5142C57.9696 47.8324 58.0605 48.2216 58.0605 48.6818C58.0605 49.1193 57.9611 49.5128 57.7623 49.8622C57.5634 50.2116 57.2495 50.4886 56.8205 50.6932C56.3915 50.8977 55.8333 51 55.1458 51H51.9924ZM53.0492 50.0625H55.1458C55.8361 50.0625 56.3262 49.929 56.6159 49.6619C56.9086 49.392 57.0549 49.0653 57.0549 48.6818C57.0549 48.3864 56.9796 48.1136 56.829 47.8636C56.6784 47.6108 56.464 47.4091 56.1855 47.2585C55.9071 47.1051 55.5776 47.0284 55.1969 47.0284H53.0492V50.0625ZM53.0492 46.108H55.0094C55.3276 46.108 55.6145 46.0455 55.8702 45.9205C56.1287 45.7955 56.3333 45.6193 56.4838 45.392C56.6373 45.1648 56.714 44.8977 56.714 44.5909C56.714 44.2074 56.5804 43.8821 56.3134 43.6151C56.0463 43.3452 55.623 43.2102 55.0435 43.2102H53.0492V46.108Z" fill="white"/>
<defs>
<filter id="filter0_d_2123_43" x="0" y="0" width="100.84" height="100.84" filterUnits="userSpaceOnUse" color-interpolation-filters="sRGB">
<feFlood flood-opacity="0" result="BackgroundImageFix"/>
<feColorMatrix in="SourceAlpha" type="matrix" values="0 0 0 0 0 0 0 0 0 0 0 0 0 0 0 0 0 0 127 0" result="hardAlpha"/>
<feOffset dy="4"/>
<feGaussianBlur stdDeviation="4"/>
<feComposite in2="hardAlpha" operator="out"/>
<feColorMatrix type="matrix" values="0 0 0 0 0 0 0 0 0 0 0 0 0 0 0 0 0 0 0.25 0"/>
<feBlend mode="normal" in2="BackgroundImageFix" result="effect1_dropShadow_2123_43"/>
<feBlend mode="normal" in="SourceGraphic" in2="effect1_dropShadow_2123_43" result="shape"/>
</filter>
</defs>
</svg>
